<svg width="27" height="27" viewBox="0 0 27 27" fill="none" xmlns="http://www.w3.org/2000/svg">
<g id="ShoppingCart" clip-path="url(#clip0_1453_6011)">
<path id="Vector" d="M18.9844 19.4062H8.77184C8.37664 19.4062 7.99401 19.2674 7.69064 19.0142C7.38726 18.7609 7.1824 18.4092 7.11176 18.0204L4.42125 3.22418C4.38593 3.02977 4.2835 2.85392 4.13181 2.72729C3.98012 2.60066 3.78881 2.53128 3.59121 2.53125H1.6875" stroke="black" stroke-width="2" stroke-linecap="round" stroke-linejoin="round"/>
<path id="Vector_2" d="M8.85938 23.625C10.0244 23.625 10.9688 22.6806 10.9688 21.5156C10.9688 20.3506 10.0244 19.4062 8.85938 19.4062C7.6944 19.4062 6.75 20.3506 6.75 21.5156C6.75 22.6806 7.6944 23.625 8.85938 23.625Z" stroke="black" stroke-width="2" stroke-linecap="round" stroke-linejoin="round"/>
<path id="Vector_3" d="M18.9844 23.625C20.1494 23.625 21.0938 22.6806 21.0938 21.5156C21.0938 20.3506 20.1494 19.4062 18.9844 19.4062C17.8194 19.4062 16.875 20.3506 16.875 21.5156C16.875 22.6806 17.8194 23.625 18.9844 23.625Z" stroke="black" stroke-width="2" stroke-linecap="round" stroke-linejoin="round"/>
<path id="Vector_4" d="M6.59707 15.1875H19.8387C20.2339 15.1874 20.6165 15.0487 20.9199 14.7954C21.2232 14.5422 21.4281 14.1905 21.4987 13.8016L22.7812 6.75H5.0625" stroke="black" stroke-width="2" stroke-linecap="round" stroke-linejoin="round"/>
</g>
<defs>
<clipPath id="clip0_1453_6011">
<rect width="27" height="27" fill="white"/>
</clipPath>
</defs>
</svg>
