<svg width="200" height="200" viewBox="0 0 200 200" fill="none" xmlns="http://www.w3.org/2000/svg">
<g id="CheckCircle" clip-path="url(#clip0_1427_4121)">
<path id="Vector" d="M100 18.75C83.9303 18.75 68.2214 23.5152 54.86 32.4431C41.4985 41.371 31.0844 54.0605 24.9348 68.907C18.7852 83.7535 17.1762 100.09 20.3112 115.851C23.4463 131.612 31.1846 146.089 42.5476 157.452C53.9106 168.815 68.388 176.554 84.1489 179.689C99.9099 182.824 116.247 181.215 131.093 175.065C145.94 168.916 158.629 158.502 167.557 145.14C176.485 131.779 181.25 116.07 181.25 100C181.227 78.4581 172.66 57.8051 157.427 42.5727C142.195 27.3403 121.542 18.7727 100 18.75ZM135.672 85.6719L91.9219 129.422C91.3415 130.003 90.6522 130.464 89.8934 130.779C89.1347 131.093 88.3214 131.255 87.5 131.255C86.6787 131.255 85.8654 131.093 85.1067 130.779C84.3479 130.464 83.6586 130.003 83.0782 129.422L64.3282 110.672C63.1554 109.499 62.4966 107.909 62.4966 106.25C62.4966 104.591 63.1554 103.001 64.3282 101.828C65.5009 100.655 67.0915 99.9965 68.75 99.9965C70.4086 99.9965 71.9992 100.655 73.1719 101.828L87.5 116.164L126.828 76.8281C127.409 76.2474 128.098 75.7868 128.857 75.4725C129.616 75.1583 130.429 74.9965 131.25 74.9965C132.071 74.9965 132.884 75.1583 133.643 75.4725C134.402 75.7868 135.091 76.2474 135.672 76.8281C136.253 77.4088 136.713 78.0982 137.027 78.8569C137.342 79.6156 137.504 80.4288 137.504 81.25C137.504 82.0712 137.342 82.8844 137.027 83.6431C136.713 84.4018 136.253 85.0912 135.672 85.6719Z" fill="#DF5645"/>
</g>
<defs>
<clipPath id="clip0_1427_4121">
<rect width="200" height="200" fill="white"/>
</clipPath>
</defs>
</svg>
