<svg width="22" height="22" viewBox="0 0 22 22" fill="none" xmlns="http://www.w3.org/2000/svg">
<g id="eva:edit-2-outline">
<path id="Vector" d="M4.69696 19.0179H4.78743L8.97926 18.6359C9.43844 18.5901 9.86792 18.3878 10.1956 18.0629L19.2427 9.01579C19.5938 8.64483 19.7836 8.14979 19.7704 7.63916C19.7572 7.12853 19.5422 6.64395 19.1723 6.29161L16.418 3.53727C16.0585 3.1996 15.5875 3.00586 15.0944 2.99288C14.6014 2.97991 14.1208 3.14861 13.7441 3.4669L4.69696 12.514C4.37203 12.8417 4.16972 13.2712 4.12398 13.7303L3.69172 17.9222C3.67818 18.0694 3.69729 18.2178 3.74768 18.3568C3.79807 18.4958 3.8785 18.622 3.98324 18.7264C4.07717 18.8195 4.18857 18.8932 4.31104 18.9433C4.43352 18.9933 4.56466 19.0186 4.69696 19.0179ZM15.0207 4.94459L17.765 7.68889L15.7545 9.64909L13.0605 6.95506L15.0207 4.94459ZM6.07413 13.9012L11.7336 8.28197L14.4477 10.9961L8.81842 16.6254L5.80272 16.9069L6.07413 13.9012Z" fill="#A2A6B0"/>
</g>
</svg>
